<svg id="Filled" height="512" viewBox="0 0 512 512" width="512" xmlns="http://www.w3.org/2000/svg"><path d="m72 112v24l24 352h192l24-352v-24z" fill="#fae8d8"/><path d="m306 224-9.82 144h-208.36l-9.82-144z" fill="#93573d"/><path d="m88 24h208a16 16 0 0 1 16 16v56a0 0 0 0 1 0 0h-240a0 0 0 0 1 0 0v-56a16 16 0 0 1 16-16z" fill="#93573d"/><path d="m72 88h240a16 16 0 0 1 16 16v32a0 0 0 0 1 0 0h-272a0 0 0 0 1 0 0v-32a16 16 0 0 1 16-16z" fill="#794832"/><g fill="#f5cbaa"><path d="m91.39 392.71-3.39-.71"/><rect height="48" rx="24" width="80" x="64" y="224"/><rect height="48" rx="24" width="80" x="64" y="272"/><rect height="48" rx="24" width="80" x="64" y="320"/><rect height="48" rx="24" width="64" x="64" y="368"/><path d="m448 300v136a4 4 0 0 1 -4 4h-34.892a4 4 0 0 0 -2.058.57l-25.319 15.192a36 36 0 0 1 -29.044 3.558l-58.41-17.852a4 4 0 0 1 -2.821-4.1l5.014-73.611 4.8-70.362a4.006 4.006 0 0 0 -.662-2.491l-27.418-41.126a4 4 0 0 0 -3.331-1.778h-41.859a28 28 0 0 1 -28-28 28 28 0 0 1 28-28h51.274a3.988 3.988 0 0 1 1.4.255l26.8 10.055.96.36 34.529 12.943a4 4 0 0 1 1.719 1.247l62.118 77.64a4 4 0 0 0 3.123 1.5h34.077a4 4 0 0 1 4 4z"/></g><path d="m444 288h-32.155l-60.911-76.14a12.018 12.018 0 0 0 -5.158-3.738l-29.909-11.216 3.606-52.906h8.527a8 8 0 0 0 8-8v-32a24.039 24.039 0 0 0 -16-22.624v-41.376a24.028 24.028 0 0 0 -24-24h-208a24.028 24.028 0 0 0 -24 24v41.376a24.039 24.039 0 0 0 -16 22.624v32a8 8 0 0 0 8 8h8.526l5.293 77.688a31.947 31.947 0 0 0 -2.951 50.312 31.934 31.934 0 0 0 0 48 31.934 31.934 0 0 0 0 48 31.973 31.973 0 0 0 16.732 55.69l4.423 64.854a8 8 0 0 0 7.977 7.456h192a8 8 0 0 0 7.981-7.455l2.555-37.41 51.813 15.835a44.066 44.066 0 0 0 35.5-4.348l24.367-14.622h33.784a12.013 12.013 0 0 0 12-12v-136a12.013 12.013 0 0 0 -12-12zm-356-256h208a8.009 8.009 0 0 1 8 8v40h-224v-40a8.009 8.009 0 0 1 8-8zm-24 72a8.009 8.009 0 0 1 8-8h240a8.009 8.009 0 0 1 8 8v24h-256zm16.564 40h222.872l-3.206 47.042-16.73-6.275a11.947 11.947 0 0 0 -4.222-.767h-51.278a36.047 36.047 0 0 0 -35.772 32h-104.228c-.85 0-1.69.043-2.524.109zm208.146 216h-141.01a31.916 31.916 0 0 0 -6.563-40 31.934 31.934 0 0 0 0-48 31.916 31.916 0 0 0 6.563-40h46.369a36.057 36.057 0 0 0 33.931 24h39.719l25.474 38.213zm-200.71-48a16 16 0 0 1 -4.529-31.337 15.91 15.91 0 0 1 4.529-.663h32a16 16 0 0 1 0 32zm0-80h32a16 16 0 0 1 0 32h-32a16 16 0 0 1 0-32zm-16 112a16.019 16.019 0 0 1 16-16h32a16 16 0 0 1 0 32h-32a16.019 16.019 0 0 1 -16-16zm0 48a16.019 16.019 0 0 1 16-16h16a16 16 0 0 1 0 32h-16a16.019 16.019 0 0 1 -16-16zm208.527 88h-177.054l-3.819-56h4.346a31.976 31.976 0 0 0 27.7-48h155.92zm159.473-48h-30.892a12.008 12.008 0 0 0 -6.174 1.71l-25.319 15.19a28.039 28.039 0 0 1 -22.591 2.768l-55.371-16.923 9.6-140.808a12.057 12.057 0 0 0 -1.988-7.468l-27.417-41.126a11.977 11.977 0 0 0 -9.989-5.343h-41.859a20 20 0 0 1 0-40h50.549l60.58 22.718 61.427 76.782a11.946 11.946 0 0 0 9.367 4.5h30.077z"/></svg>