<svg id="FillOutline" height="512" viewBox="0 0 512 512" width="512" xmlns="http://www.w3.org/2000/svg"><path d="m24 24h440v464h-440z" fill="#5a6570"/><path d="m360 168c0 .69-.01 1.39-.03 2.09a78.964 78.964 0 0 1 -6.7 29.91 79.97 79.97 0 0 1 -153.27-31.35c-.34-43.4 34.52-79.51 77.91-80.62a79.542 79.542 0 0 1 42.09 10.7v23.27l14 14h19.32a79.56 79.56 0 0 1 6.68 32z" fill="#d7e6eb"/><circle cx="264" cy="152" fill="#7a8a99" r="24"/><path d="m384 408-196.332-196.332c-6.227-6.227-6.582-16.76-.352-22.984a15.994 15.994 0 0 1 22.624.006l196.685 196.685z" fill="#ef5349"/><path d="m481.47 460.215-22.627 22.628-79.196-79.196 11.313-33.941z" fill="#35505e"/><path d="m403.245 404.617h32v32h-32z" fill="#abbac2" transform="matrix(.707 -.707 .707 .707 -174.627 419.647)"/><path d="m281.14 392.33 181.02-181.02a16 16 0 1 0 -22.63-22.62l-181.02 181.02z" fill="#86bd40"/><path d="m199.48 409.42h67.882v16.001h-67.882z" fill="#d08b29" transform="matrix(.707 -.707 .707 .707 -226.794 287.313)"/><path d="m188.711 410.215h32v71.833h-32z" fill="#abbac2" transform="matrix(.707 .707 -.707 .707 375.421 -14.083)"/><path d="m195.48 419.078h40.569v32h-40.569z" fill="#35505e" transform="matrix(.707 -.707 .707 .707 -244.451 280)"/><path d="m281.137 392.333-11.314 11.314a16 16 0 0 1 -22.627 0 16 16 0 0 1 0-22.628l11.314-11.313z" fill="#ccdce4"/><path d="m96 64h288v136h16v-136h48v96h16v-136h-16v24h-48v-24h-16v24h-288v-24h-16v24h-48v-24h-16v464h16v-24h48v24h16v-24h48v-16h-48zm-16 0v184h-48v-184zm-48 384v-184h48v184z"/><path d="m48 88h16v16h-16z"/><path d="m48 128h16v16h-16z"/><path d="m48 168h16v16h-16z"/><path d="m48 208h16v16h-16z"/><path d="m48 288h16v16h-16z"/><path d="m48 328h16v16h-16z"/><path d="m416 288h16v16h-16z"/><path d="m416 328h16v16h-16z"/><path d="m48 368h16v16h-16z"/><path d="m48 408h16v16h-16z"/><path d="m416 88h16v16h-16z"/><path d="m416 128h16v16h-16z"/><path d="m448 256h16v136h-16z"/><path d="m487.127 454.558-128.449-128.444 109.138-109.146a24 24 0 1 0 -33.943-33.934l-109.138 109.137-109.128-109.128a24 24 0 1 0 -33.955 33.924l109.148 109.143-32.289 32.29-11.311-11.317-11.317 11.317 11.312 11.31-5.655 5.655a24.037 24.037 0 0 0 -4.695 27.321l-12.277 12.274-5.656-5.656a8 8 0 0 0 -11.314 0l-45.255 45.254a8 8 0 0 0 0 11.313l22.627 22.629a8 8 0 0 0 11.314 0l45.255-45.255a8 8 0 0 0 0-11.314l-5.656-5.657 12.276-12.274a24.039 24.039 0 0 0 27.321-4.7l5.659-5.659 11.315 11.312 11.313-11.314-11.314-11.312 32.286-32.278 128.447 128.451a8 8 0 0 0 11.314 0l22.627-22.629a8 8 0 0 0 0-11.313zm-296.5 16.971-11.314-11.314 10.794-10.793 11.314 11.313zm22.108-22.108-11.313-11.314 11.833-11.833 11.313 11.314zm217.824-28.8-11.314 11.315-11.314-11.315 11.314-11.321zm-48.753-48.751-5.656 16.966-40.1-40.1 11.31-11.311zm-188.839-166.218a8 8 0 1 1 11.316-11.3l109.138 109.133-11.311 11.315zm71.2 192.338a8 8 0 1 1 -11.312-11.313l5.656-5.657 11.314 11.312zm5.661-28.282 60.57-60.562 114.791-114.8a8 8 0 0 1 11.315 11.3l-114.8 114.8-60.564 60.563zm124.63 14.808 13.475 13.474-11.316 11.31-7.817-7.818zm64.386 87.013-28.285-28.284 11.314-11.314 28.284 28.284z"/><path d="m286.628 129.373a31.984 31.984 0 1 0 0 45.255 32.038 32.038 0 0 0 -.001-45.256zm-11.314 33.94a15.992 15.992 0 1 1 0-22.627 16.018 16.018 0 0 1 0 22.627z"/><path d="m301.6 236.705 4.794 15.266a88.031 88.031 0 0 0 54.26-119.171 8 8 0 0 0 -7.33-4.8h-16.011l-9.313-9.313v-19.958a8 8 0 0 0 -3.993-6.923 88 88 0 0 0 -131.573 67.4l15.921 1.582a71.993 71.993 0 0 1 103.645-57.279v18.491a8 8 0 0 0 2.343 5.657l14 14a8 8 0 0 0 5.657 2.343h13.891a71.507 71.507 0 0 1 4.109 24h-32v16h30.216a71.643 71.643 0 0 1 -5.654 16h-64.562v16h53.762a71.892 71.892 0 0 1 -32.162 20.705z"/><path d="m136 104h16v16h-16z"/><path d="m208 304h16v16h-16z"/><path d="m176 384h16v16h-16z"/><path d="m112 200h16v16h-16z"/><path d="m152 264h16v16h-16z"/><path d="m120 344h16v16h-16z"/><path d="m256 448h144v16h-144z"/></svg>